<mxfile host="app.diagrams.net" modified="2022-09-19T18:33:34.612Z" agent="5.0 (Windows NT 10.0; Win64; x64) AppleWebKit/537.36 (KHTML, like Gecko) Chrome/105.0.0.0 Safari/537.36" etag="aBntlAPeKFpDJDXjzmM2" version="20.3.2" type="github" pages="2">
  <diagram id="kgpKYQtTHZ0yAKxKKP6v" name="Page-1">
    <mxGraphModel dx="2595" dy="1458" grid="1" gridSize="10" guides="1" tooltips="1" connect="1" arrows="1" fold="1" page="1" pageScale="1" pageWidth="850" pageHeight="1100" math="0" shadow="0">
      <root>
        <mxCell id="0" />
        <mxCell id="1" parent="0" />
        <mxCell id="hZ0QgCodJRUeT8s8Wfv0-66" value="loop" style="shape=umlFrame;whiteSpace=wrap;html=1;fontSize=14;" vertex="1" parent="1">
          <mxGeometry x="1747.5" y="309.73" width="902.5" height="380.27" as="geometry" />
        </mxCell>
        <mxCell id="hZ0QgCodJRUeT8s8Wfv0-104" value="alt" style="shape=umlFrame;whiteSpace=wrap;html=1;fontSize=14;" vertex="1" parent="1">
          <mxGeometry x="1760" y="350" width="870" height="330" as="geometry" />
        </mxCell>
        <mxCell id="hZ0QgCodJRUeT8s8Wfv0-113" value="Приложение" style="shape=umlLifeline;perimeter=lifelinePerimeter;container=1;collapsible=0;recursiveResize=0;rounded=0;shadow=0;strokeWidth=1;" vertex="1" parent="1">
          <mxGeometry x="2065" y="90" width="100" height="650" as="geometry" />
        </mxCell>
        <mxCell id="hZ0QgCodJRUeT8s8Wfv0-117" value="" style="points=[];perimeter=orthogonalPerimeter;rounded=0;shadow=0;strokeWidth=1;" vertex="1" parent="hZ0QgCodJRUeT8s8Wfv0-113">
          <mxGeometry x="55" y="309.79" width="10" height="50.21" as="geometry" />
        </mxCell>
        <mxCell id="hZ0QgCodJRUeT8s8Wfv0-57" value="alt" style="shape=umlFrame;whiteSpace=wrap;html=1;fontSize=14;" vertex="1" parent="1">
          <mxGeometry x="890" y="230" width="800" height="230" as="geometry" />
        </mxCell>
        <mxCell id="hZ0QgCodJRUeT8s8Wfv0-14" value="alt" style="shape=umlFrame;whiteSpace=wrap;html=1;fontSize=14;" vertex="1" parent="1">
          <mxGeometry x="27.5" y="560" width="800" height="230" as="geometry" />
        </mxCell>
        <mxCell id="siiK5NIC4n_gWujEXP8Y-23" value="alt" style="shape=umlFrame;whiteSpace=wrap;html=1;fontSize=14;" vertex="1" parent="1">
          <mxGeometry x="25" y="330" width="800" height="180" as="geometry" />
        </mxCell>
        <mxCell id="3nuBFxr9cyL0pnOWT2aG-5" value="Приложение" style="shape=umlLifeline;perimeter=lifelinePerimeter;container=1;collapsible=0;recursiveResize=0;rounded=0;shadow=0;strokeWidth=1;" parent="1" vertex="1">
          <mxGeometry x="345" y="80" width="100" height="690" as="geometry" />
        </mxCell>
        <mxCell id="3nuBFxr9cyL0pnOWT2aG-6" value="" style="points=[];perimeter=orthogonalPerimeter;rounded=0;shadow=0;strokeWidth=1;" parent="3nuBFxr9cyL0pnOWT2aG-5" vertex="1">
          <mxGeometry x="45" y="80" width="10" height="320" as="geometry" />
        </mxCell>
        <mxCell id="siiK5NIC4n_gWujEXP8Y-14" value="" style="points=[];perimeter=orthogonalPerimeter;rounded=0;shadow=0;strokeWidth=1;" vertex="1" parent="3nuBFxr9cyL0pnOWT2aG-5">
          <mxGeometry x="55" y="100" width="10" height="50" as="geometry" />
        </mxCell>
        <mxCell id="siiK5NIC4n_gWujEXP8Y-15" value="Получение&lt;br&gt;данных из&lt;br&gt;сессии" style="html=1;verticalAlign=bottom;endArrow=block;fontSize=14;curved=1;entryX=0.988;entryY=0.741;entryDx=0;entryDy=0;entryPerimeter=0;" edge="1" parent="3nuBFxr9cyL0pnOWT2aG-5" target="siiK5NIC4n_gWujEXP8Y-14">
          <mxGeometry x="-0.4815" y="5" width="80" relative="1" as="geometry">
            <mxPoint x="65" y="110" as="sourcePoint" />
            <mxPoint x="120" y="110" as="targetPoint" />
            <Array as="points">
              <mxPoint x="150" y="120" />
            </Array>
            <mxPoint as="offset" />
          </mxGeometry>
        </mxCell>
        <mxCell id="siiK5NIC4n_gWujEXP8Y-18" value="Отправка запроса" style="html=1;verticalAlign=bottom;endArrow=block;rounded=0;fontSize=14;entryX=0.5;entryY=0.063;entryDx=0;entryDy=0;entryPerimeter=0;exitX=1.035;exitY=0.063;exitDx=0;exitDy=0;exitPerimeter=0;" edge="1" parent="3nuBFxr9cyL0pnOWT2aG-5">
          <mxGeometry width="80" relative="1" as="geometry">
            <mxPoint x="54.999999999999886" y="180.08000000000004" as="sourcePoint" />
            <mxPoint x="239.64999999999998" y="180.08000000000004" as="targetPoint" />
            <Array as="points">
              <mxPoint x="149.64999999999998" y="180" />
            </Array>
          </mxGeometry>
        </mxCell>
        <mxCell id="siiK5NIC4n_gWujEXP8Y-32" value="Переадресация на&lt;br&gt;страницу регистрации" style="html=1;verticalAlign=bottom;endArrow=open;dashed=1;endSize=8;fontSize=14;curved=1;exitX=0.5;exitY=0.353;exitDx=0;exitDy=0;exitPerimeter=0;entryX=1.035;entryY=0.752;entryDx=0;entryDy=0;entryPerimeter=0;" edge="1" parent="3nuBFxr9cyL0pnOWT2aG-5">
          <mxGeometry relative="1" as="geometry">
            <mxPoint x="45" y="389.9999999999999" as="sourcePoint" />
            <mxPoint x="-134.1800000000001" y="390.23000000000013" as="targetPoint" />
          </mxGeometry>
        </mxCell>
        <mxCell id="hZ0QgCodJRUeT8s8Wfv0-4" value="" style="points=[];perimeter=orthogonalPerimeter;rounded=0;shadow=0;strokeWidth=1;" vertex="1" parent="3nuBFxr9cyL0pnOWT2aG-5">
          <mxGeometry x="45" y="510" width="10" height="90" as="geometry" />
        </mxCell>
        <mxCell id="hZ0QgCodJRUeT8s8Wfv0-16" value="" style="shape=umlDestroy;whiteSpace=wrap;html=1;strokeWidth=3;strokeColor=default;fontSize=14;" vertex="1" parent="3nuBFxr9cyL0pnOWT2aG-5">
          <mxGeometry x="40" y="680" width="20" height="20" as="geometry" />
        </mxCell>
        <mxCell id="siiK5NIC4n_gWujEXP8Y-1" value="&lt;font style=&quot;font-size: 14px;&quot;&gt;Просмотр профиля&lt;/font&gt;" style="text;html=1;strokeColor=none;fillColor=none;align=center;verticalAlign=middle;whiteSpace=wrap;rounded=0;" vertex="1" parent="1">
          <mxGeometry x="140" y="30" width="130" height="30" as="geometry" />
        </mxCell>
        <mxCell id="siiK5NIC4n_gWujEXP8Y-3" value="Сервер" style="shape=umlLifeline;perimeter=lifelinePerimeter;container=1;collapsible=0;recursiveResize=0;rounded=0;shadow=0;strokeWidth=1;" vertex="1" parent="1">
          <mxGeometry x="535" y="80" width="100" height="690" as="geometry" />
        </mxCell>
        <mxCell id="siiK5NIC4n_gWujEXP8Y-4" value="" style="points=[];perimeter=orthogonalPerimeter;rounded=0;shadow=0;strokeWidth=1;" vertex="1" parent="siiK5NIC4n_gWujEXP8Y-3">
          <mxGeometry x="45" y="170" width="10" height="70" as="geometry" />
        </mxCell>
        <mxCell id="siiK5NIC4n_gWujEXP8Y-20" value="Запрос данных о&lt;br&gt;пользователе" style="html=1;verticalAlign=bottom;endArrow=block;rounded=0;fontSize=14;entryX=0.5;entryY=0.063;entryDx=0;entryDy=0;entryPerimeter=0;exitX=1.035;exitY=0.063;exitDx=0;exitDy=0;exitPerimeter=0;" edge="1" parent="siiK5NIC4n_gWujEXP8Y-3">
          <mxGeometry width="80" relative="1" as="geometry">
            <mxPoint x="55" y="230.08000000000004" as="sourcePoint" />
            <mxPoint x="239.6500000000001" y="230.08000000000004" as="targetPoint" />
            <Array as="points">
              <mxPoint x="149.64999999999998" y="230" />
            </Array>
          </mxGeometry>
        </mxCell>
        <mxCell id="hZ0QgCodJRUeT8s8Wfv0-5" value="" style="points=[];perimeter=orthogonalPerimeter;rounded=0;shadow=0;strokeWidth=1;" vertex="1" parent="siiK5NIC4n_gWujEXP8Y-3">
          <mxGeometry x="45" y="510" width="10" height="90" as="geometry" />
        </mxCell>
        <mxCell id="hZ0QgCodJRUeT8s8Wfv0-10" value="Запрос на изменение&lt;br&gt;записи в БД" style="html=1;verticalAlign=bottom;endArrow=open;rounded=0;fontSize=14;entryX=-0.053;entryY=0.117;entryDx=0;entryDy=0;entryPerimeter=0;exitX=0.971;exitY=0.122;exitDx=0;exitDy=0;exitPerimeter=0;endFill=0;" edge="1" parent="siiK5NIC4n_gWujEXP8Y-3">
          <mxGeometry width="80" relative="1" as="geometry">
            <mxPoint x="55" y="531.9599999999998" as="sourcePoint" />
            <mxPoint x="234.76" y="531.06" as="targetPoint" />
            <Array as="points">
              <mxPoint x="139.93999999999994" y="531.68" />
            </Array>
          </mxGeometry>
        </mxCell>
        <mxCell id="siiK5NIC4n_gWujEXP8Y-10" value="Пользователь" style="shape=umlLifeline;participant=umlActor;perimeter=lifelinePerimeter;whiteSpace=wrap;html=1;container=1;collapsible=0;recursiveResize=0;verticalAlign=top;spacingTop=36;outlineConnect=0;fontSize=14;" vertex="1" parent="1">
          <mxGeometry x="195" y="80" width="20" height="690" as="geometry" />
        </mxCell>
        <mxCell id="siiK5NIC4n_gWujEXP8Y-13" value="" style="points=[];perimeter=orthogonalPerimeter;rounded=0;shadow=0;strokeWidth=1;" vertex="1" parent="siiK5NIC4n_gWujEXP8Y-10">
          <mxGeometry x="5" y="80" width="10" height="590" as="geometry" />
        </mxCell>
        <mxCell id="siiK5NIC4n_gWujEXP8Y-11" value="База данных&lt;br&gt;" style="shape=umlLifeline;participant=umlActor;perimeter=lifelinePerimeter;whiteSpace=wrap;html=1;container=1;collapsible=0;recursiveResize=0;verticalAlign=top;spacingTop=36;outlineConnect=0;fontSize=14;" vertex="1" parent="1">
          <mxGeometry x="765" y="80" width="20" height="690" as="geometry" />
        </mxCell>
        <mxCell id="siiK5NIC4n_gWujEXP8Y-19" value="" style="points=[];perimeter=orthogonalPerimeter;rounded=0;shadow=0;strokeWidth=1;" vertex="1" parent="siiK5NIC4n_gWujEXP8Y-11">
          <mxGeometry x="5" y="220" width="10" height="180" as="geometry" />
        </mxCell>
        <mxCell id="hZ0QgCodJRUeT8s8Wfv0-6" value="" style="points=[];perimeter=orthogonalPerimeter;rounded=0;shadow=0;strokeWidth=1;" vertex="1" parent="siiK5NIC4n_gWujEXP8Y-11">
          <mxGeometry x="5" y="500" width="10" height="100" as="geometry" />
        </mxCell>
        <mxCell id="siiK5NIC4n_gWujEXP8Y-12" value="Переходит на&lt;br&gt;страницу &quot;Пользователь&quot;" style="html=1;verticalAlign=bottom;endArrow=block;rounded=0;fontSize=14;entryX=0.129;entryY=0.045;entryDx=0;entryDy=0;entryPerimeter=0;exitX=1.071;exitY=0.024;exitDx=0;exitDy=0;exitPerimeter=0;" edge="1" parent="1" source="siiK5NIC4n_gWujEXP8Y-13" target="3nuBFxr9cyL0pnOWT2aG-6">
          <mxGeometry width="80" relative="1" as="geometry">
            <mxPoint x="215" y="170" as="sourcePoint" />
            <mxPoint x="385" y="170" as="targetPoint" />
            <Array as="points">
              <mxPoint x="306" y="174" />
            </Array>
          </mxGeometry>
        </mxCell>
        <mxCell id="siiK5NIC4n_gWujEXP8Y-24" value="" style="line;strokeWidth=2;fillColor=none;align=left;verticalAlign=middle;spacingTop=-1;spacingLeft=3;spacingRight=3;rotatable=0;labelPosition=right;points=[];portConstraint=eastwest;strokeColor=inherit;fontSize=14;dashed=1;" vertex="1" parent="1">
          <mxGeometry x="30" y="411" width="795" height="8.31" as="geometry" />
        </mxCell>
        <mxCell id="siiK5NIC4n_gWujEXP8Y-27" value="&lt;font style=&quot;font-size: 14px;&quot;&gt;Пользователь&lt;br&gt;найден&lt;br&gt;&lt;/font&gt;" style="text;html=1;strokeColor=none;fillColor=none;align=center;verticalAlign=middle;whiteSpace=wrap;rounded=0;" vertex="1" parent="1">
          <mxGeometry x="50" y="370" width="130" height="30" as="geometry" />
        </mxCell>
        <mxCell id="siiK5NIC4n_gWujEXP8Y-29" value="Отправка данных&lt;br&gt;о пользователе" style="html=1;verticalAlign=bottom;endArrow=open;dashed=1;endSize=8;fontSize=14;curved=1;entryX=1.047;entryY=0.655;entryDx=0;entryDy=0;entryPerimeter=0;exitX=0.5;exitY=0.389;exitDx=0;exitDy=0;exitPerimeter=0;" edge="1" parent="1" source="siiK5NIC4n_gWujEXP8Y-19" target="3nuBFxr9cyL0pnOWT2aG-6">
          <mxGeometry relative="1" as="geometry">
            <mxPoint x="715" y="370" as="sourcePoint" />
            <mxPoint x="415" y="370" as="targetPoint" />
          </mxGeometry>
        </mxCell>
        <mxCell id="siiK5NIC4n_gWujEXP8Y-30" value="Отображение данных&lt;br&gt;о пользователе" style="html=1;verticalAlign=bottom;endArrow=open;dashed=1;endSize=8;fontSize=14;curved=1;exitX=0.5;exitY=0.353;exitDx=0;exitDy=0;exitPerimeter=0;entryX=0.959;entryY=0.407;entryDx=0;entryDy=0;entryPerimeter=0;" edge="1" parent="1" target="siiK5NIC4n_gWujEXP8Y-13">
          <mxGeometry relative="1" as="geometry">
            <mxPoint x="389.53" y="400.40999999999997" as="sourcePoint" />
            <mxPoint x="225" y="400" as="targetPoint" />
          </mxGeometry>
        </mxCell>
        <mxCell id="siiK5NIC4n_gWujEXP8Y-31" value="Отправка сообщения об&lt;br&gt;отсутствии пользователя" style="html=1;verticalAlign=bottom;endArrow=open;dashed=1;endSize=8;fontSize=14;curved=1;exitX=0.5;exitY=0.353;exitDx=0;exitDy=0;exitPerimeter=0;entryX=1.047;entryY=0.931;entryDx=0;entryDy=0;entryPerimeter=0;" edge="1" parent="1" target="3nuBFxr9cyL0pnOWT2aG-6">
          <mxGeometry relative="1" as="geometry">
            <mxPoint x="772.27" y="459.23" as="sourcePoint" />
            <mxPoint x="415" y="459" as="targetPoint" />
          </mxGeometry>
        </mxCell>
        <mxCell id="siiK5NIC4n_gWujEXP8Y-34" value="" style="line;strokeWidth=2;fillColor=none;align=left;verticalAlign=middle;spacingTop=-1;spacingLeft=3;spacingRight=3;rotatable=0;labelPosition=right;points=[];portConstraint=eastwest;strokeColor=inherit;fontSize=14;dashed=1;" vertex="1" parent="1">
          <mxGeometry x="30" y="687.86" width="800" height="8.39" as="geometry" />
        </mxCell>
        <mxCell id="siiK5NIC4n_gWujEXP8Y-35" value="&lt;font style=&quot;&quot;&gt;&lt;font style=&quot;font-size: 13px;&quot;&gt;Пользователь хочет отредактировать&lt;br&gt;данные&lt;/font&gt;&lt;br&gt;&lt;/font&gt;" style="text;html=1;strokeColor=none;fillColor=none;align=center;verticalAlign=middle;whiteSpace=wrap;rounded=0;" vertex="1" parent="1">
          <mxGeometry x="40" y="610.0000000000001" width="156.64" height="39.16" as="geometry" />
        </mxCell>
        <mxCell id="hZ0QgCodJRUeT8s8Wfv0-1" value="&lt;font style=&quot;font-size: 14px;&quot;&gt;else&lt;br&gt;&lt;/font&gt;" style="text;html=1;strokeColor=none;fillColor=none;align=center;verticalAlign=middle;whiteSpace=wrap;rounded=0;" vertex="1" parent="1">
          <mxGeometry x="65.82" y="710" width="105" height="26.25" as="geometry" />
        </mxCell>
        <mxCell id="hZ0QgCodJRUeT8s8Wfv0-2" value="&lt;font style=&quot;font-size: 14px;&quot;&gt;else&lt;br&gt;&lt;/font&gt;" style="text;html=1;strokeColor=none;fillColor=none;align=center;verticalAlign=middle;whiteSpace=wrap;rounded=0;" vertex="1" parent="1">
          <mxGeometry x="62.5" y="450" width="105" height="26.25" as="geometry" />
        </mxCell>
        <mxCell id="hZ0QgCodJRUeT8s8Wfv0-8" value="Ввод данных" style="html=1;verticalAlign=bottom;endArrow=block;rounded=0;fontSize=14;entryX=0.5;entryY=0.063;entryDx=0;entryDy=0;entryPerimeter=0;exitX=1.035;exitY=0.063;exitDx=0;exitDy=0;exitPerimeter=0;" edge="1" parent="1">
          <mxGeometry width="80" relative="1" as="geometry">
            <mxPoint x="210" y="590.08" as="sourcePoint" />
            <mxPoint x="394.6500000000001" y="590.08" as="targetPoint" />
            <Array as="points">
              <mxPoint x="304.65" y="590" />
            </Array>
          </mxGeometry>
        </mxCell>
        <mxCell id="hZ0QgCodJRUeT8s8Wfv0-9" value="Данные валидны" style="html=1;verticalAlign=bottom;endArrow=block;rounded=0;fontSize=14;entryX=-0.053;entryY=0.117;entryDx=0;entryDy=0;entryPerimeter=0;exitX=0.971;exitY=0.122;exitDx=0;exitDy=0;exitPerimeter=0;" edge="1" parent="1" source="hZ0QgCodJRUeT8s8Wfv0-4" target="hZ0QgCodJRUeT8s8Wfv0-5">
          <mxGeometry width="80" relative="1" as="geometry">
            <mxPoint x="420" y="601" as="sourcePoint" />
            <mxPoint x="574.6500000000001" y="601.7599999999999" as="targetPoint" />
            <Array as="points">
              <mxPoint x="484.65" y="601.68" />
            </Array>
          </mxGeometry>
        </mxCell>
        <mxCell id="hZ0QgCodJRUeT8s8Wfv0-12" value="&lt;font style=&quot;font-size: 12px;&quot;&gt;Отправка сообщения об &lt;br&gt;успешном изменении &lt;/font&gt;&lt;font style=&quot;font-size: 12px;&quot;&gt;данных&lt;/font&gt;" style="html=1;verticalAlign=bottom;endArrow=open;dashed=1;endSize=8;fontSize=14;curved=1;exitX=0.5;exitY=0.353;exitDx=0;exitDy=0;exitPerimeter=0;entryX=0.982;entryY=0.405;entryDx=0;entryDy=0;entryPerimeter=0;" edge="1" parent="1">
          <mxGeometry relative="1" as="geometry">
            <mxPoint x="391.08000000000015" y="669.21" as="sourcePoint" />
            <mxPoint x="210" y="670.8" as="targetPoint" />
          </mxGeometry>
        </mxCell>
        <mxCell id="hZ0QgCodJRUeT8s8Wfv0-13" value="&lt;font style=&quot;font-size: 14px;&quot;&gt;Изменение данных&lt;br&gt;на сайте&lt;/font&gt;" style="html=1;verticalAlign=bottom;endArrow=open;dashed=1;endSize=8;fontSize=14;curved=1;exitX=0.5;exitY=0.353;exitDx=0;exitDy=0;exitPerimeter=0;entryX=0.982;entryY=0.405;entryDx=0;entryDy=0;entryPerimeter=0;" edge="1" parent="1">
          <mxGeometry relative="1" as="geometry">
            <mxPoint x="581.0800000000002" y="644.21" as="sourcePoint" />
            <mxPoint x="400" y="645.8" as="targetPoint" />
          </mxGeometry>
        </mxCell>
        <mxCell id="hZ0QgCodJRUeT8s8Wfv0-15" value="" style="shape=umlDestroy;whiteSpace=wrap;html=1;strokeWidth=3;strokeColor=default;fontSize=14;" vertex="1" parent="1">
          <mxGeometry x="195" y="760" width="20" height="20" as="geometry" />
        </mxCell>
        <mxCell id="hZ0QgCodJRUeT8s8Wfv0-18" value="" style="shape=umlDestroy;whiteSpace=wrap;html=1;strokeWidth=3;strokeColor=default;fontSize=14;" vertex="1" parent="1">
          <mxGeometry x="575" y="760" width="20" height="20" as="geometry" />
        </mxCell>
        <mxCell id="hZ0QgCodJRUeT8s8Wfv0-19" value="" style="shape=umlDestroy;whiteSpace=wrap;html=1;strokeWidth=3;strokeColor=default;fontSize=14;" vertex="1" parent="1">
          <mxGeometry x="765" y="760" width="20" height="20" as="geometry" />
        </mxCell>
        <mxCell id="hZ0QgCodJRUeT8s8Wfv0-21" value="Приложение" style="shape=umlLifeline;perimeter=lifelinePerimeter;container=1;collapsible=0;recursiveResize=0;rounded=0;shadow=0;strokeWidth=1;" vertex="1" parent="1">
          <mxGeometry x="1207.5" y="80" width="100" height="410" as="geometry" />
        </mxCell>
        <mxCell id="hZ0QgCodJRUeT8s8Wfv0-22" value="" style="points=[];perimeter=orthogonalPerimeter;rounded=0;shadow=0;strokeWidth=1;" vertex="1" parent="hZ0QgCodJRUeT8s8Wfv0-21">
          <mxGeometry x="45" y="80" width="10" height="290" as="geometry" />
        </mxCell>
        <mxCell id="hZ0QgCodJRUeT8s8Wfv0-28" value="" style="shape=umlDestroy;whiteSpace=wrap;html=1;strokeWidth=3;strokeColor=default;fontSize=14;" vertex="1" parent="hZ0QgCodJRUeT8s8Wfv0-21">
          <mxGeometry x="40" y="400" width="20" height="20" as="geometry" />
        </mxCell>
        <mxCell id="hZ0QgCodJRUeT8s8Wfv0-29" value="&lt;span style=&quot;font-size: 14px;&quot;&gt;Поиск&lt;/span&gt;" style="text;html=1;strokeColor=none;fillColor=none;align=center;verticalAlign=middle;whiteSpace=wrap;rounded=0;" vertex="1" parent="1">
          <mxGeometry x="1002.5" y="40" width="130" height="30" as="geometry" />
        </mxCell>
        <mxCell id="hZ0QgCodJRUeT8s8Wfv0-30" value="Сервер" style="shape=umlLifeline;perimeter=lifelinePerimeter;container=1;collapsible=0;recursiveResize=0;rounded=0;shadow=0;strokeWidth=1;" vertex="1" parent="1">
          <mxGeometry x="1397.5" y="80" width="100" height="410" as="geometry" />
        </mxCell>
        <mxCell id="hZ0QgCodJRUeT8s8Wfv0-31" value="" style="points=[];perimeter=orthogonalPerimeter;rounded=0;shadow=0;strokeWidth=1;" vertex="1" parent="hZ0QgCodJRUeT8s8Wfv0-30">
          <mxGeometry x="45" y="100" width="10" height="40" as="geometry" />
        </mxCell>
        <mxCell id="hZ0QgCodJRUeT8s8Wfv0-35" value="Пользователь" style="shape=umlLifeline;participant=umlActor;perimeter=lifelinePerimeter;whiteSpace=wrap;html=1;container=1;collapsible=0;recursiveResize=0;verticalAlign=top;spacingTop=36;outlineConnect=0;fontSize=14;" vertex="1" parent="1">
          <mxGeometry x="1057.5" y="80" width="20" height="410" as="geometry" />
        </mxCell>
        <mxCell id="hZ0QgCodJRUeT8s8Wfv0-36" value="" style="points=[];perimeter=orthogonalPerimeter;rounded=0;shadow=0;strokeWidth=1;" vertex="1" parent="hZ0QgCodJRUeT8s8Wfv0-35">
          <mxGeometry x="5" y="80" width="10" height="290" as="geometry" />
        </mxCell>
        <mxCell id="hZ0QgCodJRUeT8s8Wfv0-37" value="База данных&lt;br&gt;" style="shape=umlLifeline;participant=umlActor;perimeter=lifelinePerimeter;whiteSpace=wrap;html=1;container=1;collapsible=0;recursiveResize=0;verticalAlign=top;spacingTop=36;outlineConnect=0;fontSize=14;" vertex="1" parent="1">
          <mxGeometry x="1627.5" y="80" width="20" height="410" as="geometry" />
        </mxCell>
        <mxCell id="hZ0QgCodJRUeT8s8Wfv0-38" value="" style="points=[];perimeter=orthogonalPerimeter;rounded=0;shadow=0;strokeWidth=1;" vertex="1" parent="hZ0QgCodJRUeT8s8Wfv0-37">
          <mxGeometry x="5" y="110" width="10" height="260" as="geometry" />
        </mxCell>
        <mxCell id="hZ0QgCodJRUeT8s8Wfv0-40" value="Ввод запроса и/или&lt;br&gt;выбор фильтров" style="html=1;verticalAlign=bottom;endArrow=block;rounded=0;fontSize=14;entryX=0.129;entryY=0.045;entryDx=0;entryDy=0;entryPerimeter=0;" edge="1" parent="1" target="hZ0QgCodJRUeT8s8Wfv0-22">
          <mxGeometry width="80" relative="1" as="geometry">
            <mxPoint x="1073" y="173" as="sourcePoint" />
            <mxPoint x="1247.5" y="170" as="targetPoint" />
            <Array as="points" />
          </mxGeometry>
        </mxCell>
        <mxCell id="hZ0QgCodJRUeT8s8Wfv0-54" value="" style="shape=umlDestroy;whiteSpace=wrap;html=1;strokeWidth=3;strokeColor=default;fontSize=14;" vertex="1" parent="1">
          <mxGeometry x="1057.5" y="480" width="20" height="20" as="geometry" />
        </mxCell>
        <mxCell id="hZ0QgCodJRUeT8s8Wfv0-25" value="Отправка запроса" style="html=1;verticalAlign=bottom;endArrow=block;rounded=0;fontSize=14;entryX=0.5;entryY=0.063;entryDx=0;entryDy=0;entryPerimeter=0;exitX=1.035;exitY=0.063;exitDx=0;exitDy=0;exitPerimeter=0;" edge="1" parent="1">
          <mxGeometry width="80" relative="1" as="geometry">
            <mxPoint x="1262.5" y="190.08000000000004" as="sourcePoint" />
            <mxPoint x="1447.15" y="190.08000000000004" as="targetPoint" />
            <Array as="points">
              <mxPoint x="1357.15" y="190" />
            </Array>
          </mxGeometry>
        </mxCell>
        <mxCell id="hZ0QgCodJRUeT8s8Wfv0-32" value="Запрос на получение&lt;br&gt;совпадений" style="html=1;verticalAlign=bottom;endArrow=block;rounded=0;fontSize=14;entryX=0.5;entryY=0.063;entryDx=0;entryDy=0;entryPerimeter=0;exitX=1.035;exitY=0.063;exitDx=0;exitDy=0;exitPerimeter=0;" edge="1" parent="1">
          <mxGeometry width="80" relative="1" as="geometry">
            <mxPoint x="1452.5" y="210.08000000000004" as="sourcePoint" />
            <mxPoint x="1637.15" y="210.08000000000004" as="targetPoint" />
            <Array as="points">
              <mxPoint x="1547.15" y="210" />
            </Array>
          </mxGeometry>
        </mxCell>
        <mxCell id="hZ0QgCodJRUeT8s8Wfv0-58" value="" style="line;strokeWidth=2;fillColor=none;align=left;verticalAlign=middle;spacingTop=-1;spacingLeft=3;spacingRight=3;rotatable=0;labelPosition=right;points=[];portConstraint=eastwest;strokeColor=inherit;fontSize=14;dashed=1;" vertex="1" parent="1">
          <mxGeometry x="892.5" y="340.8" width="800" height="8.39" as="geometry" />
        </mxCell>
        <mxCell id="hZ0QgCodJRUeT8s8Wfv0-59" value="&lt;font style=&quot;&quot;&gt;&lt;span style=&quot;font-size: 13px;&quot;&gt;Данные найдены&lt;/span&gt;&lt;br&gt;&lt;/font&gt;" style="text;html=1;strokeColor=none;fillColor=none;align=center;verticalAlign=middle;whiteSpace=wrap;rounded=0;" vertex="1" parent="1">
          <mxGeometry x="902.5" y="280.0000000000001" width="156.64" height="39.16" as="geometry" />
        </mxCell>
        <mxCell id="hZ0QgCodJRUeT8s8Wfv0-60" value="&lt;font style=&quot;&quot;&gt;&lt;span style=&quot;font-size: 13px;&quot;&gt;else&lt;/span&gt;&lt;br&gt;&lt;/font&gt;" style="text;html=1;strokeColor=none;fillColor=none;align=center;verticalAlign=middle;whiteSpace=wrap;rounded=0;" vertex="1" parent="1">
          <mxGeometry x="902.5" y="380.1500000000001" width="156.64" height="39.16" as="geometry" />
        </mxCell>
        <mxCell id="hZ0QgCodJRUeT8s8Wfv0-61" value="Отправка совпадений" style="html=1;verticalAlign=bottom;endArrow=open;dashed=1;endSize=8;fontSize=14;curved=1;exitX=0.925;exitY=0.174;exitDx=0;exitDy=0;exitPerimeter=0;entryX=0.463;entryY=0.174;entryDx=0;entryDy=0;entryPerimeter=0;" edge="1" parent="1" source="hZ0QgCodJRUeT8s8Wfv0-57" target="hZ0QgCodJRUeT8s8Wfv0-57">
          <mxGeometry relative="1" as="geometry">
            <mxPoint x="1610" y="270" as="sourcePoint" />
            <mxPoint x="1450" y="270" as="targetPoint" />
          </mxGeometry>
        </mxCell>
        <mxCell id="hZ0QgCodJRUeT8s8Wfv0-62" value="Отображение совпадений" style="html=1;verticalAlign=bottom;endArrow=open;dashed=1;endSize=8;fontSize=14;curved=1;exitX=0.925;exitY=0.174;exitDx=0;exitDy=0;exitPerimeter=0;entryX=0.225;entryY=0.343;entryDx=0;entryDy=0;entryPerimeter=0;" edge="1" parent="1" target="hZ0QgCodJRUeT8s8Wfv0-57">
          <mxGeometry relative="1" as="geometry">
            <mxPoint x="1252.3" y="310" as="sourcePoint" />
            <mxPoint x="1090" y="309" as="targetPoint" />
          </mxGeometry>
        </mxCell>
        <mxCell id="hZ0QgCodJRUeT8s8Wfv0-63" value="Возвращение None" style="html=1;verticalAlign=bottom;endArrow=open;dashed=1;endSize=8;fontSize=14;curved=1;exitX=0.925;exitY=0.174;exitDx=0;exitDy=0;exitPerimeter=0;entryX=0.463;entryY=0.174;entryDx=0;entryDy=0;entryPerimeter=0;" edge="1" parent="1">
          <mxGeometry relative="1" as="geometry">
            <mxPoint x="1632.3" y="380.15" as="sourcePoint" />
            <mxPoint x="1262.7" y="380.15" as="targetPoint" />
          </mxGeometry>
        </mxCell>
        <mxCell id="hZ0QgCodJRUeT8s8Wfv0-64" value="Вывод сообщения&lt;br&gt;об отсутствии совпадений" style="html=1;verticalAlign=bottom;endArrow=open;dashed=1;endSize=8;fontSize=14;curved=1;exitX=0.925;exitY=0.174;exitDx=0;exitDy=0;exitPerimeter=0;entryX=0.225;entryY=0.783;entryDx=0;entryDy=0;entryPerimeter=0;" edge="1" parent="1" target="hZ0QgCodJRUeT8s8Wfv0-57">
          <mxGeometry relative="1" as="geometry">
            <mxPoint x="1252.3000000000006" y="411.0000000000001" as="sourcePoint" />
            <mxPoint x="1080" y="410" as="targetPoint" />
          </mxGeometry>
        </mxCell>
        <mxCell id="hZ0QgCodJRUeT8s8Wfv0-56" value="" style="shape=umlDestroy;whiteSpace=wrap;html=1;strokeWidth=3;strokeColor=default;fontSize=14;" vertex="1" parent="1">
          <mxGeometry x="1627.5" y="480" width="20" height="20" as="geometry" />
        </mxCell>
        <mxCell id="hZ0QgCodJRUeT8s8Wfv0-55" value="" style="shape=umlDestroy;whiteSpace=wrap;html=1;strokeWidth=3;strokeColor=default;fontSize=14;" vertex="1" parent="1">
          <mxGeometry x="1437.5" y="480" width="20" height="20" as="geometry" />
        </mxCell>
        <mxCell id="hZ0QgCodJRUeT8s8Wfv0-75" value="&lt;font style=&quot;font-size: 14px;&quot;&gt;Регистрация&lt;/font&gt;" style="text;html=1;strokeColor=none;fillColor=none;align=center;verticalAlign=middle;whiteSpace=wrap;rounded=0;" vertex="1" parent="1">
          <mxGeometry x="1860" y="40" width="130" height="30" as="geometry" />
        </mxCell>
        <mxCell id="hZ0QgCodJRUeT8s8Wfv0-76" value="Сервер" style="shape=umlLifeline;perimeter=lifelinePerimeter;container=0;collapsible=0;recursiveResize=0;rounded=0;shadow=0;strokeWidth=1;" vertex="1" parent="1">
          <mxGeometry x="2255" y="90" width="105" height="650" as="geometry" />
        </mxCell>
        <mxCell id="hZ0QgCodJRUeT8s8Wfv0-81" value="Пользователь" style="shape=umlLifeline;participant=umlActor;perimeter=lifelinePerimeter;whiteSpace=wrap;html=1;container=1;collapsible=0;recursiveResize=0;verticalAlign=top;spacingTop=36;outlineConnect=0;fontSize=14;" vertex="1" parent="1">
          <mxGeometry x="1915" y="90" width="20" height="650" as="geometry" />
        </mxCell>
        <mxCell id="hZ0QgCodJRUeT8s8Wfv0-82" value="" style="points=[];perimeter=orthogonalPerimeter;rounded=0;shadow=0;strokeWidth=1;" vertex="1" parent="hZ0QgCodJRUeT8s8Wfv0-81">
          <mxGeometry x="5" y="80" width="10" height="100" as="geometry" />
        </mxCell>
        <mxCell id="hZ0QgCodJRUeT8s8Wfv0-107" value="" style="points=[];perimeter=orthogonalPerimeter;rounded=0;shadow=0;strokeWidth=1;" vertex="1" parent="hZ0QgCodJRUeT8s8Wfv0-81">
          <mxGeometry x="5" y="290" width="10" height="290" as="geometry" />
        </mxCell>
        <mxCell id="hZ0QgCodJRUeT8s8Wfv0-83" value="База данных&lt;br&gt;" style="shape=umlLifeline;participant=umlActor;perimeter=lifelinePerimeter;whiteSpace=wrap;html=1;container=1;collapsible=0;recursiveResize=0;verticalAlign=top;spacingTop=36;outlineConnect=0;fontSize=14;" vertex="1" parent="1">
          <mxGeometry x="2485" y="90" width="25" height="650" as="geometry" />
        </mxCell>
        <mxCell id="hZ0QgCodJRUeT8s8Wfv0-121" value="" style="points=[];perimeter=orthogonalPerimeter;rounded=0;shadow=0;strokeWidth=1;" vertex="1" parent="hZ0QgCodJRUeT8s8Wfv0-83">
          <mxGeometry x="7.5" y="390" width="10" height="90" as="geometry" />
        </mxCell>
        <mxCell id="hZ0QgCodJRUeT8s8Wfv0-86" value="Переходит на&lt;br&gt;страницу &quot;Регистрация&quot;" style="html=1;verticalAlign=bottom;endArrow=block;rounded=0;fontSize=14;entryX=0.171;entryY=0.141;entryDx=0;entryDy=0;entryPerimeter=0;exitX=0.962;exitY=0.147;exitDx=0;exitDy=0;exitPerimeter=0;" edge="1" parent="1" source="hZ0QgCodJRUeT8s8Wfv0-82" target="hZ0QgCodJRUeT8s8Wfv0-68">
          <mxGeometry width="80" relative="1" as="geometry">
            <mxPoint x="1930" y="186" as="sourcePoint" />
            <mxPoint x="2105" y="180" as="targetPoint" />
            <Array as="points">
              <mxPoint x="2026" y="184" />
            </Array>
          </mxGeometry>
        </mxCell>
        <mxCell id="hZ0QgCodJRUeT8s8Wfv0-100" value="" style="shape=umlDestroy;whiteSpace=wrap;html=1;strokeWidth=3;strokeColor=default;fontSize=14;" vertex="1" parent="1">
          <mxGeometry x="1915" y="730" width="20" height="20" as="geometry" />
        </mxCell>
        <mxCell id="hZ0QgCodJRUeT8s8Wfv0-101" value="" style="shape=umlDestroy;whiteSpace=wrap;html=1;strokeWidth=3;strokeColor=default;fontSize=14;" vertex="1" parent="1">
          <mxGeometry x="2297.5" y="730" width="20" height="20" as="geometry" />
        </mxCell>
        <mxCell id="hZ0QgCodJRUeT8s8Wfv0-106" value="&lt;font style=&quot;font-size: 11px;&quot;&gt;&lt;span style=&quot;&quot;&gt;Цикл запускается,&lt;br&gt;&lt;/span&gt;&lt;font style=&quot;font-size: 11px;&quot;&gt;если введённые данных невалидны или пользователь уже существует&lt;/font&gt;&lt;br&gt;&lt;/font&gt;" style="text;html=1;strokeColor=none;fillColor=none;align=center;verticalAlign=middle;whiteSpace=wrap;rounded=0;" vertex="1" parent="1">
          <mxGeometry x="1747.5" y="260.00000000000006" width="156.64" height="39.16" as="geometry" />
        </mxCell>
        <mxCell id="hZ0QgCodJRUeT8s8Wfv0-109" value="&lt;font style=&quot;font-size: 11px;&quot;&gt;Данные валидны и такого пользователя не существует&lt;br&gt;&lt;/font&gt;" style="text;html=1;strokeColor=none;fillColor=none;align=center;verticalAlign=middle;whiteSpace=wrap;rounded=0;" vertex="1" parent="1">
          <mxGeometry x="1769.57" y="480.29" width="140" height="39.16" as="geometry" />
        </mxCell>
        <mxCell id="hZ0QgCodJRUeT8s8Wfv0-110" value="&lt;font style=&quot;font-size: 11px;&quot;&gt;else&lt;br&gt;&lt;/font&gt;" style="text;html=1;strokeColor=none;fillColor=none;align=center;verticalAlign=middle;whiteSpace=wrap;rounded=0;" vertex="1" parent="1">
          <mxGeometry x="1769.57" y="630" width="140" height="39.16" as="geometry" />
        </mxCell>
        <mxCell id="hZ0QgCodJRUeT8s8Wfv0-112" value="Отправляет заполненную&lt;br&gt;форму" style="html=1;verticalAlign=bottom;endArrow=block;rounded=0;fontSize=14;entryX=0.171;entryY=0.141;entryDx=0;entryDy=0;entryPerimeter=0;exitX=0.962;exitY=0.147;exitDx=0;exitDy=0;exitPerimeter=0;" edge="1" parent="1">
          <mxGeometry width="80" relative="1" as="geometry">
            <mxPoint x="1930.0000000000005" y="390.70000000000005" as="sourcePoint" />
            <mxPoint x="2112.09" y="390.1" as="targetPoint" />
            <Array as="points">
              <mxPoint x="2026.38" y="390" />
            </Array>
          </mxGeometry>
        </mxCell>
        <mxCell id="hZ0QgCodJRUeT8s8Wfv0-68" value="" style="points=[];perimeter=orthogonalPerimeter;rounded=0;shadow=0;strokeWidth=1;" vertex="1" parent="1">
          <mxGeometry x="2110" y="170" width="10" height="100" as="geometry" />
        </mxCell>
        <mxCell id="hZ0QgCodJRUeT8s8Wfv0-74" value="" style="shape=umlDestroy;whiteSpace=wrap;html=1;strokeWidth=3;strokeColor=default;fontSize=14;" vertex="1" parent="1">
          <mxGeometry x="2105" y="730" width="20" height="20" as="geometry" />
        </mxCell>
        <mxCell id="hZ0QgCodJRUeT8s8Wfv0-103" value="Отображение формы&lt;br&gt;регистрации" style="html=1;verticalAlign=bottom;endArrow=open;dashed=1;endSize=8;fontSize=14;curved=1;exitX=0.5;exitY=0.353;exitDx=0;exitDy=0;exitPerimeter=0;entryX=0.959;entryY=0.407;entryDx=0;entryDy=0;entryPerimeter=0;" edge="1" parent="1">
          <mxGeometry relative="1" as="geometry">
            <mxPoint x="2109.9999999999995" y="240.27999999999986" as="sourcePoint" />
            <mxPoint x="1930.0600000000002" y="239.9999999999999" as="targetPoint" />
          </mxGeometry>
        </mxCell>
        <mxCell id="hZ0QgCodJRUeT8s8Wfv0-111" value="" style="points=[];perimeter=orthogonalPerimeter;rounded=0;shadow=0;strokeWidth=1;" vertex="1" parent="1">
          <mxGeometry x="2110" y="380" width="10" height="290" as="geometry" />
        </mxCell>
        <mxCell id="hZ0QgCodJRUeT8s8Wfv0-118" value="Проверка&lt;br&gt;валидности" style="html=1;verticalAlign=bottom;endArrow=block;fontSize=14;curved=1;entryX=0.988;entryY=0.741;entryDx=0;entryDy=0;entryPerimeter=0;" edge="1" parent="1">
          <mxGeometry x="-0.4815" y="5" width="80" relative="1" as="geometry">
            <mxPoint x="2130.12" y="411" as="sourcePoint" />
            <mxPoint x="2130" y="438.04999999999995" as="targetPoint" />
            <Array as="points">
              <mxPoint x="2215.12" y="421" />
            </Array>
            <mxPoint as="offset" />
          </mxGeometry>
        </mxCell>
        <mxCell id="hZ0QgCodJRUeT8s8Wfv0-123" value="Отправка данных" style="html=1;verticalAlign=bottom;endArrow=block;rounded=0;fontSize=14;entryX=0.171;entryY=0.141;entryDx=0;entryDy=0;entryPerimeter=0;exitX=0.962;exitY=0.147;exitDx=0;exitDy=0;exitPerimeter=0;" edge="1" parent="1">
          <mxGeometry width="80" relative="1" as="geometry">
            <mxPoint x="2310.0000000000005" y="489.87000000000006" as="sourcePoint" />
            <mxPoint x="2492.0899999999997" y="489.27000000000004" as="targetPoint" />
            <Array as="points">
              <mxPoint x="2406.38" y="489.17" />
            </Array>
          </mxGeometry>
        </mxCell>
        <mxCell id="hZ0QgCodJRUeT8s8Wfv0-122" value="" style="points=[];perimeter=orthogonalPerimeter;rounded=0;shadow=0;strokeWidth=1;" vertex="1" parent="1">
          <mxGeometry x="2502.5" y="495.42" width="10" height="39.16" as="geometry" />
        </mxCell>
        <mxCell id="hZ0QgCodJRUeT8s8Wfv0-124" value="Создание нового&lt;br&gt;пользователя" style="html=1;verticalAlign=bottom;endArrow=block;fontSize=14;curved=1;entryX=0.988;entryY=0.741;entryDx=0;entryDy=0;entryPerimeter=0;" edge="1" parent="1">
          <mxGeometry x="-0.3389" y="7" width="80" relative="1" as="geometry">
            <mxPoint x="2512.62" y="500" as="sourcePoint" />
            <mxPoint x="2512.5" y="527.05" as="targetPoint" />
            <Array as="points">
              <mxPoint x="2597.62" y="510" />
            </Array>
            <mxPoint as="offset" />
          </mxGeometry>
        </mxCell>
        <mxCell id="hZ0QgCodJRUeT8s8Wfv0-119" value="" style="points=[];perimeter=orthogonalPerimeter;rounded=0;shadow=0;strokeWidth=1;" vertex="1" parent="1">
          <mxGeometry x="2302.5" y="470" width="10" height="100" as="geometry" />
        </mxCell>
        <mxCell id="hZ0QgCodJRUeT8s8Wfv0-120" value="Отправка данных" style="html=1;verticalAlign=bottom;endArrow=block;rounded=0;fontSize=14;entryX=0.171;entryY=0.141;entryDx=0;entryDy=0;entryPerimeter=0;exitX=0.962;exitY=0.147;exitDx=0;exitDy=0;exitPerimeter=0;" edge="1" parent="1">
          <mxGeometry width="80" relative="1" as="geometry">
            <mxPoint x="2119.1600000000003" y="480.70000000000005" as="sourcePoint" />
            <mxPoint x="2301.2499999999995" y="480.0999999999999" as="targetPoint" />
            <Array as="points">
              <mxPoint x="2215.54" y="480" />
            </Array>
          </mxGeometry>
        </mxCell>
        <mxCell id="hZ0QgCodJRUeT8s8Wfv0-108" value="" style="line;strokeWidth=2;fillColor=none;align=left;verticalAlign=middle;spacingTop=-1;spacingLeft=3;spacingRight=3;rotatable=0;labelPosition=right;points=[];portConstraint=eastwest;strokeColor=inherit;fontSize=14;dashed=1;" vertex="1" parent="1">
          <mxGeometry x="1761.25" y="610" width="868.75" height="8.18" as="geometry" />
        </mxCell>
        <mxCell id="hZ0QgCodJRUeT8s8Wfv0-125" value="Отправка данных" style="html=1;verticalAlign=bottom;endArrow=open;dashed=1;endSize=8;fontSize=14;curved=1;exitX=0.5;exitY=0.353;exitDx=0;exitDy=0;exitPerimeter=0;entryX=0.959;entryY=0.407;entryDx=0;entryDy=0;entryPerimeter=0;" edge="1" parent="1">
          <mxGeometry relative="1" as="geometry">
            <mxPoint x="2492.4399999999996" y="550.2799999999997" as="sourcePoint" />
            <mxPoint x="2312.5000000000005" y="550" as="targetPoint" />
          </mxGeometry>
        </mxCell>
        <mxCell id="hZ0QgCodJRUeT8s8Wfv0-126" value="Обновление данных&lt;br&gt;о пользователях" style="html=1;verticalAlign=bottom;endArrow=open;dashed=1;endSize=8;fontSize=14;curved=1;exitX=0.5;exitY=0.353;exitDx=0;exitDy=0;exitPerimeter=0;entryX=0.959;entryY=0.407;entryDx=0;entryDy=0;entryPerimeter=0;" edge="1" parent="1">
          <mxGeometry relative="1" as="geometry">
            <mxPoint x="2302.4999999999995" y="560.2799999999997" as="sourcePoint" />
            <mxPoint x="2122.560000000001" y="560" as="targetPoint" />
          </mxGeometry>
        </mxCell>
        <mxCell id="hZ0QgCodJRUeT8s8Wfv0-127" value="Отправка сообщения&lt;br&gt;об успешной регистрации" style="html=1;verticalAlign=bottom;endArrow=open;dashed=1;endSize=8;fontSize=14;curved=1;exitX=0.5;exitY=0.353;exitDx=0;exitDy=0;exitPerimeter=0;entryX=0.959;entryY=0.407;entryDx=0;entryDy=0;entryPerimeter=0;" edge="1" parent="1">
          <mxGeometry relative="1" as="geometry">
            <mxPoint x="2109.9999999999995" y="580.2799999999997" as="sourcePoint" />
            <mxPoint x="1930.0600000000009" y="580" as="targetPoint" />
          </mxGeometry>
        </mxCell>
        <mxCell id="hZ0QgCodJRUeT8s8Wfv0-128" value="Отправка сообщения&lt;br&gt;об ошибке" style="html=1;verticalAlign=bottom;endArrow=open;dashed=1;endSize=8;fontSize=14;curved=1;exitX=0.5;exitY=0.353;exitDx=0;exitDy=0;exitPerimeter=0;entryX=0.959;entryY=0.407;entryDx=0;entryDy=0;entryPerimeter=0;" edge="1" parent="1">
          <mxGeometry relative="1" as="geometry">
            <mxPoint x="2109.9999999999995" y="660.2799999999997" as="sourcePoint" />
            <mxPoint x="1930.0600000000009" y="660" as="targetPoint" />
          </mxGeometry>
        </mxCell>
        <mxCell id="hZ0QgCodJRUeT8s8Wfv0-102" value="" style="shape=umlDestroy;whiteSpace=wrap;html=1;strokeWidth=3;strokeColor=default;fontSize=14;" vertex="1" parent="1">
          <mxGeometry x="2487.5" y="730" width="20" height="20" as="geometry" />
        </mxCell>
      </root>
    </mxGraphModel>
  </diagram>
  <diagram id="y62zx2Tg65eDy6knqHS5" name="Страница 2">
    <mxGraphModel dx="1038" dy="583" grid="1" gridSize="10" guides="1" tooltips="1" connect="1" arrows="1" fold="1" page="1" pageScale="1" pageWidth="827" pageHeight="1169" math="0" shadow="0">
      <root>
        <mxCell id="0" />
        <mxCell id="1" parent="0" />
      </root>
    </mxGraphModel>
  </diagram>
</mxfile>
